<svg xmlns="http://www.w3.org/2000/svg" viewBox="0 0 512 512" role="img" aria-label="Djembe Dragonfire icon">
  <defs>
    <radialGradient id="bg" cx="35%" cy="25%" r="80%">
      <stop offset="0%" stop-color="#f6c76c"/>
      <stop offset="42%" stop-color="#e54b7a"/>
      <stop offset="100%" stop-color="#08060a"/>
    </radialGradient>
    <linearGradient id="flame" x1="0" y1="0" x2="1" y2="1">
      <stop offset="0%" stop-color="#fff8f2"/>
      <stop offset="38%" stop-color="#f6c76c"/>
      <stop offset="100%" stop-color="#e54b7a"/>
    </linearGradient>
    <filter id="glow" x="-40%" y="-40%" width="180%" height="180%">
      <feGaussianBlur stdDeviation="10" result="blur"/>
      <feMerge>
        <feMergeNode in="blur"/>
        <feMergeNode in="SourceGraphic"/>
      </feMerge>
    </filter>
  </defs>
  <rect width="512" height="512" rx="112" fill="url(#bg)"/>
  <circle cx="256" cy="258" r="184" fill="none" stroke="rgba(255,248,242,0.22)" stroke-width="18"/>
  <path filter="url(#glow)" fill="url(#flame)" d="M277 72c21 63-20 91-3 132 13-35 50-55 72-88 9 57 60 89 60 174 0 82-66 148-149 148S108 372 108 290c0-70 44-112 83-152-5 50 13 81 44 99-11-68 20-116 42-165z"/>
  <path fill="#08060a" opacity="0.88" d="M176 222h58c58 0 98 36 98 91s-41 91-99 91h-57V222zm54 135c29 0 48-17 48-44s-19-44-48-44h-6v88h6z"/>
  <path fill="#fff8f2" opacity="0.92" d="M238 169c0-23 18-42 42-42s42 19 42 42-18 42-42 42-42-19-42-42z"/>
</svg>
